<svg xmlns="http://www.w3.org/2000/svg" width="18" height="18"><path fill="#0D47A1" d="M0 0h18v18H0z"/><path fill="#F8F9FD" d="M9 4V0H0v9h4V6l3 3h2V7L6 4z"/><path fill="#EF5350" d="M3 1V0H1v1H0v2h1v6h2V3h6V1z"/><path fill="#EF5350" d="M9 8 5 4H4l5 5z"/><path fill="#F8F9FD" d="m7 13-1 .5v.5h-.5L5 15l-.5-1H4v-.5L3 13l1-.5V12h.5l.5-1 .5 1H6v.5zm6.06-.38.25.52.56-.13-.25.51.45.36-.56.12v.58l-.45-.36-.44.36V14l-.56-.12.45-.36-.25-.51.56.13zm-2.29-5.48.24.52.56-.13-.25.51.45.36-.56.13v.57l-.44-.36-.45.36v-.57l-.56-.13.45-.36-.25-.51.56.13zm2.29-3.13.25.52.56-.13-.25.51.45.36-.56.12v.58l-.45-.36-.44.36v-.58l-.56-.12.45-.36-.25-.51.56.13zm2.01 2.35.25.52.56-.13-.25.51.44.36-.55.12v.58l-.45-.36-.45.36v-.58l-.55-.12.45-.36-.25-.51.55.13zM13.64 9.1l.2.6h.62l-.5.37.19.6-.51-.38-.51.37.2-.6-.52-.36h.63z"/></svg>