<svg xmlns="http://www.w3.org/2000/svg" width="18" height="18"><path fill="#0073cf" d="M0 0h18v18H0z"/><path d="M10.174 6.395a1.174 1.174 0 0 1-2.348 0 1.174 1.174 0 1 1 2.348 0z" fill="#fecb00"/><path d="M7.103 2.026c-1.98.037-4.019 4.796.739 7.208v6.74h.832l-.226-6.882c-.502-.165-2.224-1.277-2.224-2.733 0-.609.38-1.613 1.106-2.076.444-.283.88-.576.88-1.174s-.485-1.083-1.083-1.083h-.024zm3.735 0A1.084 1.084 0 0 0 9.79 3.109c0 .598.436.89.88 1.174.726.463 1.106 1.467 1.106 2.076 0 1.456-1.722 2.568-2.224 2.733v6.882h.606v-6.74c4.776-2.422 2.702-7.208.715-7.208h-.035zM3.954 3.719c-.53.022-.89.41-.89 1.015 0 1.123 1.948 4.077 3.947 4.816v6.424h.83v-6.74C5.907 8.061 4.523 6.578 5.14 4.472c0-.694-.929-.753-1.172-.753h-.013zm10.037 0c-.264.007-1.017.096-1.017.753-.47 2.274-1.105 3.799-2.816 4.762v6.74h.831V9.55c2-.739 3.947-3.693 3.947-4.816 0-.61-.367-.998-.903-1.015h-.042zM2.589 5.423c-.292.014-.563.234-.563.643 0 .134-.01.322.354.77 1.031 1.272 3.295 2.828 3.799 2.94v6.198h.832V9.55c-1.166-.515-2.876-2.158-3.61-3.78-.124-.276-.571-.36-.812-.347zm12.76 0c-.221.01-.614.038-.728.29-.733 1.622-2.466 3.322-3.632 3.837v6.424h.832V9.776c.504-.112 2.768-1.668 3.8-2.94.363-.448.353-.636.353-.77 0-.438-.311-.659-.625-.643zM1.862 6.818c-.289.02-.49.328-.49.512 0 .653 2.994 2.624 3.879 2.717v5.927h.928V9.776c-.689-.302-2.776-2.313-3.8-2.94-.287-.05-.355-.03-.517-.018zm14.217 0c-1.267.031-2.762 2.079-4.258 2.958v6.198h.928v-5.927c.885-.093 3.88-2.064 3.88-2.717 0-.197-.23-.534-.55-.512zm-7.63 2.274.225 6.882h.878V9.092z" fill="#fff"/></svg>