<svg xmlns="http://www.w3.org/2000/svg" width="18" height="18"><path fill="#1565C0" d="M0 0h18v18H0z"/><path fill="#FDD835" d="m8.95 2 .37 1.14h1.2l-.97.7.37 1.14-.97-.7-.96.7.36-1.13-.96-.7h1.2L8.94 2zM4.04 4.04l1.07.54.84-.84-.18 1.18 1.06.54-1.18.19-.19 1.18-.54-1.06-1.18.18.84-.84zM2 8.95l1.14-.37v-1.2l.7.97L4.99 8l-.7.96.7.97-1.13-.37-.7.97v-1.2zm2.04 4.91.54-1.06-.84-.85 1.18.19.54-1.07.19 1.19 1.18.18-1.06.55.18 1.18-.84-.85zm4.91 2.04-.37-1.14h-1.2l.97-.7L8 12.92l.96.7.97-.7-.37 1.14.97.7h-1.2l-.37 1.14zm4.91-2.04-1.06-.54-.85.85.19-1.18-1.07-.55 1.19-.18.18-1.19.55 1.07 1.18-.19-.85.85zm2.04-4.91-1.14.37v1.2l-.7-.97-1.14.37.7-.97-.7-.96 1.14.36.7-.96v1.2zm-2.04-4.91-.54 1.07.85.84-1.18-.18-.55 1.06-.18-1.18-1.19-.19 1.07-.54-.19-1.18.85.84z"/></svg>