<svg xmlns="http://www.w3.org/2000/svg" width="18" height="18"><path fill="#EF5350" d="M0 18h18V0H0z"/><path fill="#F0F0F0" d="M9.819 6.711c-.228.95-.633.769-.832 1.597a2.184 2.184 0 0 1 1.02-4.247c-.398 1.656.016 1.8-.188 2.65m-3.039.704c.832.51.535.84 1.26 1.286a2.18 2.18 0 0 1-3 .72 2.186 2.186 0 0 1-.718-3.004c1.45.89 1.715.541 2.458.998m-.27 3.111c.741-.634.963-.249 1.61-.802a2.186 2.186 0 0 1-.243 3.08 2.18 2.18 0 0 1-3.074-.244c1.293-1.106 1.043-1.467 1.707-2.034m2.87 1.22c-.373-.903.061-.995-.264-1.782a2.18 2.18 0 0 1 2.849 1.183A2.185 2.185 0 0 1 10.784 14c-.65-1.574-1.07-1.447-1.404-2.254m2.046-2.358c-.973.076-.926-.366-1.773-.3a2.183 2.183 0 0 1 2.003-2.347c1.2-.094 2.25.804 2.344 2.006-1.695.134-1.705.572-2.574.64z"/></svg>