<svg xmlns="http://www.w3.org/2000/svg" width="18" height="18"><path fill="#26C6DA" d="M0 0h18v18H0z"/><path fill="#FDD835" d="M5.95 9H4c0 .74.6 1.33 1.3 1.33h-.05c0 .74.56 1.34 1.25 1.34 0 .73.56 1.33 1.25 1.33h2.5c.69 0 1.25-.6 1.25-1.33.69 0 1.25-.6 1.25-1.34h-.04c.69 0 1.29-.6 1.29-1.33h-1.95A3.44 3.44 0 0 1 9 10.95 3.44 3.44 0 0 1 5.95 9"/><path fill="#FDD835" d="m11.5 7.5-1.02.5.54 1.05-1.1-.23L9.76 10 9 9.13l-.77.87-.14-1.18-1.11.23L7.52 8 6.5 7.5 7.52 7l-.54-1.05 1.1.23L8.24 5l.77.87.77-.87.14 1.18 1.11-.23L10.48 7l1.02.51z"/></svg>