<svg xmlns="http://www.w3.org/2000/svg" width="18" height="18" fill="none"><path fill="#EF5350" d="M0 0h18v18H0z" shape-rendering="crispEdges"/><path fill="#F8F9FD" d="M0 2h18v2H0zm0 4h18v2H0zm0 4h18v2H0zm0 4h18v2H0z" shape-rendering="crispEdges"/><path fill="#143EB2" fill-rule="evenodd" d="M0 12h11V0H0z" clip-rule="evenodd" shape-rendering="crispEdges"/><path fill="#FDD835" d="M6.635 9.344c-1.585 0-2.87-1.274-2.87-2.844s1.285-2.844 2.87-2.844c.494 0 .96.124 1.365.342A3.54 3.54 0 0 0 5.531 3C3.581 3 2 4.567 2 6.5S3.581 10 5.531 10c.961 0 1.832-.38 2.469-.998-.406.218-.87.342-1.365.342"/><path fill="#FDD835" d="m7.5 4 .212 1.569.873-1.321-.49 1.505 1.36-.812L8.36 6.086l1.577-.142-1.482.556 1.482.556-1.577-.142L9.455 8.06l-1.36-.812.49 1.505-.873-1.321L7.5 9l-.212-1.569-.873 1.321.49-1.505-1.36.812L6.64 6.914l-1.577.142L6.545 6.5l-1.482-.556 1.577.142L5.545 4.94l1.36.812-.49-1.505.873 1.321z"/></svg>