<svg xmlns="http://www.w3.org/2000/svg" width="18" height="18"><path fill="#0D47A1" d="M0 18h18V0H0z" shape-rendering="crispEdges"/><path fill="#EF5350" d="m11 8.13.25.52.56-.13-.25.51.45.36-.56.12v.58L11 9.73l-.44.36V9.5L10 9.4l.45-.36-.25-.51.56.13.24-.52zm2 4 .25.52.56-.13-.25.51.45.36-.56.12v.58l-.45-.36-.44.36v-.58L12 13.4l.45-.36-.25-.51.56.13.24-.52zM13.3 5l.25.52.56-.13-.25.51.44.36-.55.12v.58l-.45-.36-.45.36v-.58l-.55-.12.45-.36-.25-.51.55.13zm2 3.35.25.51.56-.12-.25.51.45.36-.56.12v.57l-.44-.35-.45.35v-.57l-.56-.12.45-.36-.25-.51.56.12.25-.51z"/><path fill="#F8F9FD" d="M9 4V0H0v9h4V6l3 3h2V7L6 4z"/><path fill="#EF5350" d="M3 1V0H1v1H0v2h1v6h2V3h6V1z"/><path fill="#EF5350" d="M9 8 5 4H4l5 5z"/></svg>