<svg xmlns="http://www.w3.org/2000/svg" width="18" height="18"><path fill="#F8F9FD" d="M0 0h18v18H0z" shape-rendering="crispEdges"/><path fill="#EF5350" d="M11 4h7V0h-7zM0 18h18v-4H0zm11-7h7V7h-7z" shape-rendering="crispEdges"/><path fill="#1E88E9" d="M0 0h11v11H0z" shape-rendering="crispEdges"/><path fill="#F8F9FD" d="M2.42 1.22a.09.09 0 0 1 .16 0l.27.71c.01.04.05.06.08.06l.76.04c.08 0 .11.1.05.16l-.6.47a.09.09 0 0 0-.02.1l.2.72a.09.09 0 0 1-.14.1l-.63-.41a.09.09 0 0 0-.1 0l-.63.41a.09.09 0 0 1-.14-.1l.2-.73a.09.09 0 0 0-.03-.1l-.59-.46a.09.09 0 0 1 .05-.16l.76-.04c.03 0 .07-.02.08-.06l.27-.7zm0 3a.09.09 0 0 1 .16 0l.27.71c.01.04.05.06.08.06l.76.04c.08 0 .11.1.05.16l-.6.47a.09.09 0 0 0-.02.1l.2.72a.09.09 0 0 1-.14.1l-.63-.41a.09.09 0 0 0-.1 0l-.63.41a.09.09 0 0 1-.14-.1l.2-.73a.09.09 0 0 0-.03-.1l-.59-.46a.09.09 0 0 1 .05-.16l.76-.04c.03 0 .07-.02.08-.06l.27-.7zm0 3a.09.09 0 0 1 .16 0l.27.71c.01.04.05.06.08.06l.76.04c.08 0 .11.1.05.16l-.6.47a.09.09 0 0 0-.02.1l.2.72a.09.09 0 0 1-.14.1l-.63-.41a.09.09 0 0 0-.1 0l-.63.41a.09.09 0 0 1-.14-.1l.2-.73a.09.09 0 0 0-.03-.1l-.59-.46a.09.09 0 0 1 .05-.16l.76-.04c.03 0 .07-.02.08-.06l.27-.7zm3-6a.09.09 0 0 1 .16 0l.27.71c.01.04.05.06.08.06l.76.04c.08 0 .11.1.05.16l-.6.47a.09.09 0 0 0-.02.1l.2.72a.09.09 0 0 1-.14.1l-.63-.41a.09.09 0 0 0-.1 0l-.63.41a.09.09 0 0 1-.14-.1l.2-.73a.09.09 0 0 0-.03-.1l-.59-.46a.09.09 0 0 1 .05-.16l.76-.04c.03 0 .07-.02.08-.06l.27-.7zm0 3a.09.09 0 0 1 .16 0l.27.71c.01.04.05.06.08.06l.76.04c.08 0 .11.1.05.16l-.6.47a.09.09 0 0 0-.02.1l.2.72a.09.09 0 0 1-.14.1l-.63-.41a.09.09 0 0 0-.1 0l-.63.41a.09.09 0 0 1-.14-.1l.2-.73a.09.09 0 0 0-.03-.1l-.59-.46a.09.09 0 0 1 .05-.16l.76-.04c.03 0 .07-.02.08-.06l.27-.7zm0 3a.09.09 0 0 1 .16 0l.27.71c.01.04.05.06.08.06l.76.04c.08 0 .11.1.05.16l-.6.47a.09.09 0 0 0-.02.1l.2.72a.09.09 0 0 1-.14.1l-.63-.41a.09.09 0 0 0-.1 0l-.63.41a.09.09 0 0 1-.14-.1l.2-.73a.09.09 0 0 0-.03-.1l-.59-.46a.09.09 0 0 1 .05-.16l.76-.04c.03 0 .07-.02.08-.06l.27-.7zm3-6a.09.09 0 0 1 .16 0l.27.71c.01.04.05.06.08.06l.76.04c.08 0 .11.1.05.16l-.6.47a.09.09 0 0 0-.02.1l.2.72a.09.09 0 0 1-.14.1l-.63-.41a.09.09 0 0 0-.1 0l-.63.41a.09.09 0 0 1-.14-.1l.2-.73a.09.09 0 0 0-.03-.1l-.59-.46a.09.09 0 0 1 .05-.16l.76-.04c.03 0 .07-.02.08-.06l.27-.7zm0 3a.09.09 0 0 1 .16 0l.27.71c.01.04.05.06.08.06l.76.04c.08 0 .11.1.05.16l-.6.47a.09.09 0 0 0-.02.1l.2.72a.09.09 0 0 1-.14.1l-.63-.41a.09.09 0 0 0-.1 0l-.63.41a.09.09 0 0 1-.14-.1l.2-.73a.09.09 0 0 0-.03-.1l-.59-.46a.09.09 0 0 1 .05-.16l.76-.04c.03 0 .07-.02.08-.06l.27-.7zm0 3a.09.09 0 0 1 .16 0l.27.71c.01.04.05.06.08.06l.76.04c.08 0 .11.1.05.16l-.6.47a.09.09 0 0 0-.02.1l.2.72a.09.09 0 0 1-.14.1l-.63-.41a.09.09 0 0 0-.1 0l-.63.41a.09.09 0 0 1-.14-.1l.2-.73a.09.09 0 0 0-.03-.1l-.59-.46a.09.09 0 0 1 .05-.16l.76-.04c.03 0 .07-.02.08-.06l.27-.7z"/></svg>