<svg xmlns="http://www.w3.org/2000/svg" width="18" height="18"><path fill="#2A2E39" d="m0 13 5-4-5-4z" shape-rendering="crispEdges"/><path fill="#1565C0" d="m11.5 12-9 6H18v-6z" shape-rendering="crispEdges"/><path fill="#EF5350" d="M2.5 0H18v6h-6.5z" shape-rendering="crispEdges"/><path fill="#4CAF50" d="M0 4V0h2l9 7h7v4h-7l-8.5 7H0v-4l6-5z" shape-rendering="crispEdges"/><path fill="#F8F9FD" d="M2 18h2.5l6.5-5h7v-2h-7zM2 0h2.5L11 5h7v2h-7z" shape-rendering="crispEdges"/><path fill="#FDD835" d="M0 2.5V5l5 4-5 4v2.5L8 9z" shape-rendering="crispEdges"/></svg>